<svg xmlns="http://www.w3.org/2000/svg"  viewBox="0 0 64 64" width="128px" height="128px"><linearGradient id="SVGID_1_" x1="14" x2="14" y1="16.447" y2="24.493" gradientUnits="userSpaceOnUse"><stop offset="0" stop-color="#8cc5fc"/><stop offset="1" stop-color="#d5a8fb"/></linearGradient><path fill="url(#SVGID_1_)" d="M18.9,17.8l-3.5-2.5c-1.6-0.7-3.5-0.5-4.8,0.7c-1,1-1.6,2.3-1.6,3.9v3.6l10,7.4V18.5L18.9,17.8L18.9,17.8z"/><linearGradient id="SVGID_2_" x1="50" x2="50" y1="16.447" y2="24.493" gradientUnits="userSpaceOnUse"><stop offset="0" stop-color="#8cc5fc"/><stop offset="1" stop-color="#d5a8fb"/></linearGradient><path fill="url(#SVGID_2_)" d="M55,23.5v-3.6c0-1.5-0.6-2.8-1.6-3.8c0,0,0,0,0,0c-1.5-1.5-3.9-1.5-5.5-0.3l-2.7,2l0,0L45,18.5v12.4L55,23.5z"/><linearGradient id="SVGID_3_" x1="32" x2="32" y1="12.957" y2="49.383" gradientUnits="userSpaceOnUse"><stop offset="0" stop-color="#1a6dff"/><stop offset="1" stop-color="#c822ff"/></linearGradient><path fill="url(#SVGID_3_)" d="M54.1,15.3c-1.8-1.8-4.7-1.9-6.8-0.4l-2.7,2c0,0,0,0,0,0L32,26.3L19.5,17c0,0,0,0,0,0c0,0,0,0,0,0l-2.7-2	c-2.1-1.6-5-1.4-6.8,0.4C8.7,16.6,8,18.2,8,19.9v26.7c0,1.9,1.6,3.5,3.5,3.5H19c0.6,0,1-0.4,1-1V32.9l11.4,8.4	c0.2,0.1,0.4,0.2,0.6,0.2s0.4-0.1,0.6-0.2L44,32.9v16.2c0,0.6,0.4,1,1,1h7.5c2.1,0,3.5-1.3,3.5-3.1V19.9	C56,18.2,55.3,16.6,54.1,15.3z M10,19.9c0-1.2,0.5-2.3,1.3-3.1c0.6-0.6,1.4-0.9,2.2-0.9c0.7,0,1.4,0.2,2.1,0.7l2.5,1.8	c0,0,0,0.1,0,0.1v10.4L10,23V19.9z M11.5,48.1c-0.8,0-1.5-0.7-1.5-1.5V25.5l8,5.9V40h-3v2h3v2h-5v2h5v2.1H11.5z M44,30.4l-12,8.9	l-12-8.9V19.9l11.4,8.4c0.2,0.1,0.4,0.2,0.6,0.2s0.4-0.1,0.6-0.2L44,19.9V30.4z M48.5,16.6c1.3-1,3.1-0.9,4.3,0.2	c0.8,0.8,1.3,1.9,1.3,3.1V23l-8,5.9V18.5c0,0,0-0.1,0-0.1L48.5,16.6z M52.5,48.1H46V31.4l8-5.9V40h-3v2h3v2h-5v2h5v1	C54,48,53,48.1,52.5,48.1z"/></svg>